<svg width="156" height="151" viewBox="0 0 156 151" fill="none" xmlns="http://www.w3.org/2000/svg">
<path d="M24.9336 133.593L12.658 2.91605L142.126 2.42707L130.826 133.173L77.8619 147.913L24.9336 133.593V133.593Z" fill="#089C9A" fill-opacity="0.89"/>
<path d="M77.8996 136.8L120.697 124.889L130.355 13.1593L77.4334 13.3592L77.8996 136.8Z" fill="#089C9A" fill-opacity="0.89"/>
<path d="M77.6122 60.7196L99.0597 60.6386L100.479 44.2156L77.5502 44.3022L77.4897 28.2696L118.132 28.1161L117.76 32.4193L113.942 76.6152L77.6728 76.7522L77.6122 60.7196V60.7196Z" fill="#111827"/>
<path d="M77.8656 102.357L77.7942 102.378L59.7257 97.6252L58.5232 84.8427L42.2553 84.9041L44.6203 110.069L77.8549 119.059L77.9286 119.037L77.8656 102.357V102.357Z" fill="#111827"/>
<path d="M97.7396 75.9983L95.8684 97.4759L77.8094 102.371L77.8724 119.052L111.065 109.817L111.299 107.107L114 75.9369L97.7396 75.9983Z" fill="#111827"/>
<path d="M77.5448 28.2694L77.6053 44.302L38.4556 44.4498L38.1174 40.8484L37.3484 32.723L36.9443 28.4228L77.5448 28.2694ZM77.6123 60.7219L77.6728 76.7545L59.8499 76.8218L59.5117 73.2203L58.7415 65.095L58.3386 60.7947L77.6123 60.7219Z" fill="#111827"/>
</svg>
