<svg width="50" height="50" viewBox="0 0 50 50" fill="none" xmlns="http://www.w3.org/2000/svg">
<path d="M17.1358 48.7187C22.2378 50.4265 27.7571 50.4271 32.8595 48.7204C32.2113 48.9286 31.5171 48.572 31.3089 47.9238C31.2682 47.797 31.2483 47.6644 31.25 47.5312C31.25 46.6875 31.2813 44 31.2813 40.6563C31.4168 38.9427 30.801 37.2549 29.5938 36.0313C35.1563 35.4063 41 33.2814 41 23.6878C41.041 21.2022 40.1233 18.7962 38.4375 16.9691C39.2018 14.8097 39.1124 12.4399 38.1875 10.3442C38.1875 10.3442 36.0937 9.65673 31.3125 12.9067C27.2218 11.7816 22.9032 11.7816 18.8125 12.9067C14.0312 9.68803 11.9375 10.3442 11.9375 10.3442C11.0126 12.4399 10.9231 14.8097 11.6875 16.9691C10.0067 18.7993 9.08985 21.2032 9.12502 23.6878C9.12502 33.2501 14.9375 35.4063 20.5 36.0313C19.5808 36.9157 19.0144 38.1041 18.9062 39.3751C16.3317 40.8178 13.075 39.9003 11.6323 37.3258C11.6299 37.3214 11.6274 37.317 11.625 37.3127C10.8384 35.8827 9.40372 34.9263 7.78117 34.7502C5.6875 34.7815 6.9375 35.9377 7.81245 36.4065C8.94057 37.3581 9.82007 38.57 10.375 39.9376C10.875 41.3438 12.5 44.0313 18.7812 42.8751C18.7812 44.9688 18.8125 46.9375 18.8125 47.5312C18.8125 48.1787 18.349 48.9092 17.1358 48.7187Z" fill="#23293F"/>
<path d="M25 0C11.1929 0 0 11.1928 0 24.9996C0 36.0569 7.18672 45.4211 17.1379 48.7187C18.3494 48.9078 18.8125 48.1783 18.8125 47.5312C18.8125 46.9374 18.7813 44.9688 18.7813 42.875C12.5 44.0313 10.875 41.3438 10.3751 39.9376C9.8201 38.57 8.94057 37.3581 7.8125 36.4064C6.93755 35.9377 5.68755 34.7814 7.78123 34.7501C9.4037 34.9262 10.8385 35.8826 11.6251 37.3126C11.6275 37.3171 11.6299 37.3213 11.6324 37.3258C13.0751 39.9002 16.3316 40.8177 18.9063 39.375C19.0144 38.1041 19.5809 36.9158 20.5 36.0314C14.9376 35.4064 9.12508 33.25 9.12508 23.6878C9.08983 21.2031 10.0067 18.7993 11.6875 16.9692C10.9232 14.8097 11.0126 12.4398 11.9376 10.3442C11.9376 10.3442 14.0312 9.68795 18.8125 12.9067C22.9033 11.7816 27.2218 11.7816 31.3125 12.9067C36.0938 9.65666 38.1876 10.3442 38.1876 10.3442C39.1124 12.4398 39.2018 14.8096 38.4375 16.9692C40.1233 18.7962 41.041 21.2021 41.0001 23.6878C41.0001 33.2813 35.1562 35.4064 29.5938 36.0314C30.8011 37.2548 31.4169 38.9427 31.2813 40.6563C31.2813 44 31.25 46.6875 31.25 47.5312C31.2483 47.6644 31.2681 47.797 31.3089 47.9238C31.5169 48.5709 32.2093 48.9267 32.8564 48.7207C42.8107 45.4247 50 36.059 50 24.9996C50 11.1928 38.8071 0 25 0Z" fill="#1ED760"/>
</svg>
