<svg width="49" height="50" viewBox="0 0 49 50" fill="none" xmlns="http://www.w3.org/2000/svg">
<path d="M40.5875 49.5526H7.84119C3.51744 49.5526 0 45.9526 0 41.5269V8.02563C0 3.59999 3.51744 0 7.84119 0H40.5875C44.91 0 48.4274 3.59999 48.4274 8.02563V41.5282C48.4274 45.9538 44.91 49.5526 40.5875 49.5526ZM16.25 10.2564H32.5C35.9518 10.2564 38.75 13.1264 38.75 16.6667V33.3333C38.75 36.8736 35.9518 39.7436 32.5 39.7436H16.25C12.7982 39.7436 10 36.8736 10 33.3333V16.6667C10 13.1264 12.7982 10.2564 16.25 10.2564ZM16.25 6.41026C10.7271 6.41026 6.25 11.0022 6.25 16.6667V33.3333C6.25 38.9978 10.7271 43.5897 16.25 43.5897H32.5C38.0229 43.5897 42.5 38.9978 42.5 33.3333V16.6667C42.5 11.0022 38.0229 6.41026 32.5 6.41026H16.25ZM24.375 33.9744C29.2075 33.9744 33.125 29.9564 33.125 25C33.125 20.0436 29.2075 16.0256 24.375 16.0256C19.5425 16.0256 15.625 20.0436 15.625 25C15.625 29.9564 19.5425 33.9744 24.375 33.9744ZM24.375 30.1282C21.6136 30.1282 19.375 27.8322 19.375 25C19.375 22.1678 21.6136 19.8718 24.375 19.8718C27.1364 19.8718 29.375 22.1678 29.375 25C29.375 27.8322 27.1364 30.1282 24.375 30.1282ZM33.75 17.9487C35.1307 17.9487 36.25 16.8007 36.25 15.3846C36.25 13.9685 35.1307 12.8205 33.75 12.8205C32.3693 12.8205 31.25 13.9685 31.25 15.3846C31.25 16.8007 32.3693 17.9487 33.75 17.9487Z" fill="#1ED760"/>
</svg>
