<svg width="50" height="50" viewBox="0 0 50 50" fill="none" xmlns="http://www.w3.org/2000/svg">
<path d="M41.6282 49.5526H8.04224C3.60763 49.5526 0 45.9526 0 41.5269V8.02563C0 3.59999 3.60763 0 8.04224 0H41.6282C46.0615 0 49.6692 3.59999 49.6692 8.02563V41.5282C49.6692 45.9538 46.0615 49.5526 41.6282 49.5526ZM16.7834 40.9657H16.7934V19.5915H10.1453V40.9657H16.7834ZM13.4644 16.6723C15.5938 16.6723 17.3133 14.9527 17.3133 12.8233C17.3133 10.7039 15.5838 8.97436 13.4644 8.97436C11.3349 8.97436 9.61539 10.7039 9.61539 12.8233C9.61539 14.9427 11.3349 16.6723 13.4644 16.6723ZM41.6667 40.9657V29.2488C41.6667 23.4904 40.4168 19.0616 33.6986 19.0616C30.4695 19.0616 28.3002 20.8311 27.4104 22.5107H27.3206V19.5915H20.9523V40.9657H27.5904V30.3885C27.5904 27.5993 28.1202 24.9 31.5793 24.9C34.9784 24.9 35.0285 28.0892 35.0285 30.5685V40.9657H41.6667Z" fill="#1ED760"/>
</svg>
