<svg width="80" height="80" viewBox="0 0 80 80" fill="none" xmlns="http://www.w3.org/2000/svg">
<path d="M70 16.6667H10C9.11595 16.6667 8.2681 17.0179 7.64298 17.643C7.01786 18.2681 6.66667 19.1159 6.66667 20V60C6.66667 60.8841 7.01786 61.7319 7.64298 62.357C8.2681 62.9821 9.11595 63.3333 10 63.3333H70C70.8841 63.3333 71.7319 62.9821 72.357 62.357C72.9821 61.7319 73.3333 60.8841 73.3333 60V20C73.3333 19.1159 72.9821 18.2681 72.357 17.643C71.7319 17.0179 70.8841 16.6667 70 16.6667ZM64 23.3333L40 39.3333L16 23.3333H64ZM13.3333 56.6667V29.5667L38.1667 46.2333C38.7109 46.5918 39.3483 46.7828 40 46.7828C40.6517 46.7828 41.2891 46.5918 41.8333 46.2333L66.6667 29.5667V56.6667H13.3333Z" fill="#1ED760"/>
</svg>
