<svg width="100" height="100" viewBox="0 0 100 100" fill="none" xmlns="http://www.w3.org/2000/svg">
<path d="M91.6257 27.2776C91.5904 25.4898 91.4463 23.7058 91.1945 21.9355C90.8956 20.3629 90.3879 18.8372 89.6848 17.3991C88.1428 14.3514 85.669 11.875 82.6231 10.3297C81.1934 9.6285 79.6766 9.12107 78.1128 8.82083C76.3291 8.56387 74.5313 8.41712 72.7295 8.38141C71.965 8.35366 70.9757 8.33995 70.5192 8.33995L29.4871 8.33333C29.0324 8.33333 28.0429 8.34708 27.2777 8.37429C25.4899 8.40942 23.7059 8.55345 21.9356 8.80558C20.3629 9.10438 18.8373 9.61199 17.3991 10.315C14.3515 11.8573 11.8751 14.331 10.3295 17.377C9.62847 18.8067 9.12107 20.3235 8.82062 21.8872C8.56388 23.6709 8.41712 25.4688 8.38117 27.2705C8.35396 28.035 8.34 29.0243 8.34 29.4805L8.33337 70.5129C8.33337 70.9674 8.34712 71.9569 8.37433 72.7224C8.40946 74.5102 8.55349 76.2942 8.80562 78.0644C9.10446 79.6371 9.61207 81.1627 10.315 82.6009C11.8572 85.6484 14.3309 88.1248 17.3767 89.6703C18.8066 90.3712 20.3234 90.8787 21.8872 91.1792C23.671 91.4362 25.4688 91.5829 27.2706 91.6186C28.0348 91.6461 29.0243 91.66 29.4806 91.66L70.513 91.6667C70.9674 91.6667 71.9572 91.6529 72.7222 91.6257C74.51 91.5904 76.2941 91.4464 78.0645 91.1944C79.637 90.8954 81.1626 90.3878 82.6007 89.685C85.6483 88.1427 88.1248 85.669 89.6703 82.623C90.3714 81.1933 90.8788 79.6766 91.1792 78.1128C91.4362 76.3291 91.583 74.5312 91.6189 72.7295C91.6464 71.965 91.6601 70.9757 91.6601 70.5194L91.6667 29.4871C91.6667 29.0326 91.653 28.0429 91.6257 27.2776ZM50.9031 78.9853H50.8909C45.9315 78.985 41.0511 77.7424 36.6954 75.371L20.9483 79.5002L25.1625 64.1121C21.8976 58.4471 20.5929 51.8632 21.4507 45.3812C22.3084 38.8993 25.2807 32.8814 29.9066 28.2605C34.5326 23.6397 40.5538 20.6742 47.0367 19.8236C53.5197 18.9731 60.1021 20.2852 65.7634 23.5564C71.4248 26.8276 75.8488 31.8752 78.3495 37.9165C80.8502 43.9579 81.2879 50.6555 79.5947 56.971C77.9016 63.2864 74.1722 68.8669 68.9847 72.8471C63.7973 76.8273 57.4416 78.9849 50.9031 78.9853V78.9853Z" fill="#6563FF"/>
<path d="M50.9128 24.588C46.5009 24.587 42.1693 25.7679 38.3685 28.0081C34.5676 30.2482 31.4364 33.4658 29.3003 37.3261C27.1642 41.1864 26.1014 45.5484 26.2223 49.9586C26.3432 54.3689 27.6434 58.6661 29.9878 62.4036L30.575 63.3375L28.0807 72.4452L37.425 69.9946L38.3266 70.5297C42.1311 72.7824 46.4714 73.9707 50.8929 73.97H50.9028C57.4458 73.963 63.7185 71.3591 68.343 66.7305C72.9676 62.1019 75.5659 55.827 75.5672 49.284C75.5685 42.741 72.9727 36.465 68.3501 31.8345C63.7274 27.2041 57.4558 24.5977 50.9128 24.588H50.9128ZM65.4353 59.8797C64.8888 60.7815 64.1616 61.5606 63.2994 62.1678C62.4372 62.7749 61.4586 63.1971 60.4253 63.4078C58.8654 63.6747 57.2646 63.5741 55.7503 63.114C54.3134 62.6677 52.901 62.1459 51.519 61.5508C46.393 58.9784 42.0237 55.1175 38.8399 50.347C37.1041 48.138 36.0508 45.4703 35.8093 42.6713C35.7886 41.5157 36.009 40.3685 36.4563 39.3027C36.9035 38.237 37.5679 37.2761 38.4071 36.4813C38.6551 36.1984 38.9589 35.9699 39.2996 35.8101C39.6402 35.6503 40.0101 35.5627 40.3862 35.5528C40.8808 35.5528 41.3763 35.5574 41.8086 35.579C42.2643 35.6017 42.8762 35.4059 43.4787 36.8529C44.0971 38.3383 45.5816 41.9904 45.767 42.3618C45.8846 42.5563 45.9518 42.777 45.9627 43.004C45.9735 43.231 45.9276 43.4571 45.829 43.6618C45.6419 44.1078 45.392 44.5247 45.0867 44.8998C44.7156 45.3332 44.3072 45.8672 43.9736 46.1998C43.6018 46.5699 43.2149 46.9714 43.6478 47.714C44.7625 49.6221 46.1541 51.3543 47.7769 52.8542C49.5373 54.4195 51.5571 55.6658 53.7457 56.5372C54.4878 56.9087 54.9207 56.8467 55.3537 56.3515C55.7867 55.8563 57.2091 54.1848 57.7037 53.4422C58.1982 52.6995 58.6932 52.8232 59.3735 53.0709C60.0537 53.3186 63.7032 55.1135 64.4455 55.4848C65.1878 55.8562 65.6825 56.042 65.8679 56.3515C66.0712 57.5447 65.9209 58.7713 65.4353 59.88V59.8797Z" fill="#6563FF"/>
</svg>
